<?xml version="1.0" encoding="utf-8"?>
<!-- Generator: Adobe Illustrator 21.0.0, SVG Export Plug-In . SVG Version: 6.00 Build 0)  -->
<svg version="1.1" id="Layer_1" xmlns="http://www.w3.org/2000/svg" xmlns:xlink="http://www.w3.org/1999/xlink" x="0px" y="0px"
	 viewBox="0 0 458.8 447.5" style="enable-background:new 0 0 458.8 447.5;" xml:space="preserve">
<style type="text/css">
	.st0{fill:#FFFFFF;}
</style>
<g>
	<path class="st0" d="M217.9,316c13.1,11.3,25.4,22,38,32.9c-21.3,41.7-48.6,76-96.4,87.5c-36.6,8.7-70.1,1.7-99.2-22.4
		c-6.2-5.1-10.6-12.4-16.1-18.4c-1.4-1.6-3.9-2.2-5.8-3.2c-0.8,2.4-2.3,4.8-2.1,7.1c0.3,4.2,1.7,8.4,3,14.1
		C19,394.7,8.8,372.4,5.9,346.9c-2.8-24.7,1.5-49,9.7-72.7c-1-0.6-2.1-1.1-3.1-1.7c-4.2,3-8.4,6.1-12.5,9
		c-0.9-21.9,19.6-54.4,47.1-73.6c5.5,15.3-4.3,29.5-2.3,42.4C60.3,240,76.2,229.4,92.2,219c2.3-1.5,5.2-2.2,7.3-3.1
		c-3.2,10.2-6.4,20.3-9.6,30.5c13.1-8.9,25.1-16.9,39.9-10.7c-8.5,12.9-17.8,25.2-25,38.6c-9.5,17.9-11.7,37.6-6,57.3
		c10,35,48,53.2,84.1,24.5c12.4-9.8,22.7-21.4,31.2-34.7C215.1,319.7,216.3,318.2,217.9,316z"/>
	<path class="st0" d="M373.9,413.4c13.9,8.2,27.4,13.3,42.9,9.3c-4.7,13.1-38.6,27.6-62.2,24.3c-29.5-4.1-47.6-23.2-53.3-54.6
		c-10.9,10.5-11,27.7-0.2,43.6c-17.4-4.1-32.1-22.9-32.2-41.8c-0.1-10.3,0.8-20.6,0.4-30.9c-0.4-9.4-5.6-16.8-12.7-22.6
		c-13.1-10.9-26.2-21.8-39.8-32.2c-11.2-8.6-18.3-19.4-18.6-33.4c-0.2-9.1-4.9-14.7-11.3-19.7c-2.5-1.9-5-3.8-7.4-5.8
		c-8-7-10.7-15.5-6.5-27.2c3.2,16.1,14.6,18.9,27.1,19.5c11,0.5,16.2,5.1,18,16.6c1.9,11.4,2.2,12.9,13.1,12.7
		c18.6-0.4,29.4,12.5,42.1,22.4c11.7,9.2,22.9,19.1,34.6,28.4c16.1,12.8,35.1,7.3,38.4-11.2c0.6-3.4,0.1-7.1,0.1-10.4
		c19.6,7.1,24.4,39.3,8.5,60.6c14.4,5.3,38-4.4,43.5-16.7c6.6-14.8,0.9-27.5-19.6-40.1c24.4-0.8,43.8,6.8,57.4,26.3
		c12,17.2,12.5,35.7,1.4,53.4C423.3,406.5,401.1,414.3,373.9,413.4z"/>
	<path class="st0" d="M141,160.1c-5.5-5.7-10.4-12.1-16.6-17c-4.9-3.9-8-8-8.5-14c-1.4-16-0.2-31.5,8.7-45.9
		c1.1,19.6,11.6,34,24.6,47c8,8,16.5,15.5,24.7,23.2c5.9,5.6,11.8,11.3,18.6,16.4c-4.2-5.4-8.1-11.1-12.8-16
		c-7.9-8.1-16.4-15.5-24.6-23.3c-11.7-11.1-13-27.8-2.9-42.6c1.5,25.1,17.8,40.3,34.2,55.6c11.8,11,24.4,21.2,32.1,35.9
		c0.7,1.3,1.7,2.5,2,3.8c1.4,6.7,1.7,13.9,4.2,20.2c2.3,5.7,6.9,10.4,12,17.9c3.6-4.3,7.3-8.8,11.1-13.4c4.6,17.2-8.6,45-23.8,51.2
		c0.4-8.8,1.3-18.4-8.9-21.9c-8-2.7-16.6-3.4-25-5.1c1.1-3.2,2.8-7.1,3.9-11.2c1.2-4.3-1.1-6.8-5.2-7.7c-15.6-3.5-30.7-0.1-47.4,3.5
		c7.6,1,13.5,1.8,19.8,2.6c-1.8,5.5-3.9,10.3-4.8,15.4c-0.5,3-0.1,7.5,1.8,9.2c1.5,1.4,5.9-0.2,9.2-0.4c-0.3,1.6-0.7,4.1-1.2,6.6
		c-2.4,13.9-0.6,16,13.5,14.6c-9.2,15.6-23.6,21.3-40.8,24.1c4.8-5.3,9-9.9,14.2-15.7c-6.6,0.4-11.4,0.8-17.5,1.2
		c11-12.5,17.2-25,5.6-39c-7.9-9.6-24.8-10.7-40.1-3.6c1.4-9.2,8.4-17.5,26.1-30.7c-6.9-1.9-13.1-3.5-19.4-5.2
		c-0.2-0.7-0.4-1.3-0.6-2c11-4.1,21.9-8.1,31.4-11.6c-14.8-2.1-45.9,8.1-50.8,18.8c6.2,1.3,12.5,2.6,17.4,3.6
		c-17.4,9.8-35.4,20-53.1,29.9c0.8-4.7,2.3-10.7,2.6-16.8c0.7-11.8-5-18-16.6-18.9c-3.8-0.3-7.7-0.2-11.5,0
		c-3.6,0.2-7.1,0.7-11.6-0.2c5.2-3.7,10.2-7.8,15.7-11.1c8.6-5.2,17.7-9.6,26.4-14.8c10.8-6.4,11.7-10.8,3.1-20.2
		c-4.7-5.2-10.7-9.2-17.8-15.2c12,0.9,22.3,1.7,32.9,2.5c-4.3-9.4-6.8-19.6-2.7-32.1c10.4,20.4,29.6,27.7,46.2,38.3
		c7.2,4.6,14,10,20.9,15C140.3,160.6,140.7,160.3,141,160.1z M178.1,179c-0.6,0.7-1.1,1.3-1.7,2c1.9,12.6,10.2,22,21.5,19.1
		C190.8,192.5,184.5,185.7,178.1,179z"/>
	<path class="st0" d="M208,155.2c-11.7-12.3-22.7-24.1-33.8-35.7c-3.4-3.6-3.9-6.4-1.2-11.2c7.6-13.9,10.2-28.8,4.7-44.3
		c-5.9-16.8-18.5-23.3-32.3-22.6c-15.9,0.8-29.1,13.6-31.2,29c-0.6,4.7-0.1,9.5-0.3,14.3c-0.3,6.1-0.8,12.3-1.3,18.4
		c-0.6,9-1.2,18.1-1.8,27c-12.6-2.5-25.5-16.6-37.4-42c-7.1,14.7-8.9,29.4-5.4,46.5c-10.1-10.2-14.4-21.4-16-33.2
		c-4.8-35.3,6.5-64.3,35.7-85.5c13-9.4,28-13.8,43.6-15.2c21.5-1.9,42.7-0.1,62.4,10c34.6,17.9,50.8,57.4,39.6,97.2
		C228.6,124.6,221.1,140,208,155.2z"/>
	<path class="st0" d="M246.3,266.2c29.5-38.1,62.9-71.6,114.3-79.7c-24.4-1-62.6,12.3-93.2,44.1c8.9-26.4,25.1-47.2,49.8-64.2
		c-2.9,7-5.1,12.2-7.3,17.4c0.9,0.7,1.8,1.4,2.8,2.1c4.6-3.2,9.4-6.1,13.7-9.6c10.1-8.2,19.8-16.8,32.7-20.3
		c1.1-0.3,2.3-0.7,3.4-0.9c0.9-0.1,1.9,0,3.7,0c-5.3,5.6-14.3,7.2-15,17.8c4.7-0.8,8.7-1,12.3-2.3c35.7-12.7,65.4-1.4,91.9,22.7
		c1,0.9,1.8,2,3.5,4c-20-3.3-38.1,0-55.2,7.3c-9.2,3.9-16.5,5.6-26.9,1.6c-20.2-7.8-44.1,1.5-57.9,18.7
		c-15.3,19-28.1,39.5-38.1,61.7c-0.4,0.9-0.9,1.7-1.6,3C268.2,281.9,257.6,274.3,246.3,266.2z"/>
	<path class="st0" d="M178.1,179c6.4,6.8,12.7,13.5,19.8,21.1c-11.3,2.9-19.5-6.5-21.5-19.1C177,180.3,177.6,179.6,178.1,179z"/>
</g>
</svg>
