<?xml version="1.0" encoding="utf-8"?>
<!-- Generator: Adobe Illustrator 21.0.0, SVG Export Plug-In . SVG Version: 6.00 Build 0)  -->
<svg version="1.1" id="Layer_1" xmlns="http://www.w3.org/2000/svg" xmlns:xlink="http://www.w3.org/1999/xlink" x="0px" y="0px"
	 viewBox="0 0 911 430.3" style="enable-background:new 0 0 911 430.3;" xml:space="preserve">
<style type="text/css">
	.st0{fill:#FFFFFF;}
</style>
<path d="M153.3,298.7c14,0,27.9,0.4,41.7-0.1c16.1-0.6,31-5.5,43.4-16.2c11.3-9.7,18.5-22.2,21.4-36.7c2.1-10.4,2.9-21.2,3.8-31.8
	c0.3-3.5,1.4-4.8,4.9-4.9c8.9-0.2,17.9,0,26.6-1.2c9.6-1.3,19-4.1,28.5-6c2.3-0.5,4.8-0.1,8.5-0.1c-1.5,2.4-2.1,4.4-3.4,5.6
	c-16.9,15.7-26.8,35.3-31.2,57.7c-1.3,6.4-1.8,13-2.4,19.5c-0.6,7.1-1,14.3-1.4,21.6c2.5-2.7,4.9-5.3,7.4-7.9
	c0.5,0.3,0.9,0.5,1.4,0.8c0,3.3-0.1,6.6,0,9.9c0.3,8.9,0.8,17.9,0.8,26.8c0,2.3-1.1,5.3-2.8,6.7c-22.8,18.1-48.3,30.5-77.5,34.1
	c-11.8,1.5-23.7,2.6-35.6,2.7c-53.3,0.6-106.5,0.8-159.8,1c-4.9,0-9.7-0.7-16.2-1.2c1.8-2,2.6-3.4,3.9-4.1
	c10-6.2,19.9-12.9,30.3-18.4c11.1-5.8,14.6-15.1,14.6-26.6c0.1-63.9,0-127.9,0-191.8c0-4-0.6-7.9-0.9-11.9
	c-0.6-9.7-6.4-15.9-13.7-21.2C28.6,92.3,14.3,77.3,6.5,57.1c-2.5-6.4-4.3-13-6.3-19.5c-0.4-1.2-0.1-2.5-0.1-3.8
	c1.6,0.3,3.3,0.2,4.7,0.8c7.5,3.5,14.5,8,22.3,10.5c8.2,2.6,16.9,4.1,25.5,4.7c13,1,26.1,0.8,39.1,1.1c10.1,0.3,20.3,0.7,30.4,0.9
	c16.3,0.4,32.6,0.6,48.9,0.9c12.3,0.3,24.6,0.2,36.8,1c20.2,1.3,39.7,5.9,58.3,14.3c19.1,8.6,36.2,20.1,50.6,35.4
	c14.6,15.6,25.8,33.4,33.2,53.6c1.2,3.4,0.4,4.8-2.7,6.4c-16.5,8.2-31.5,18.5-43.5,32.7c-2.3,2.7-4.8,5.2-7.5,7.4
	c-1.2,1-3,1.6-4.5,1.7c-8,0.2-16,0-24,0.1c-3,0-4.2-0.9-4.8-4.1c-2.1-12.3-4.4-24.5-11-35.6c-10-16.8-24.8-26.4-43.4-30.5
	c-5.6-1.2-11.5-1.7-17.2-1.9c-11.4-0.3-22.8-0.1-34.2-0.1c-2.4,0-4.1,0-4.1,3.3c0.1,53.6,0.1,107.2,0.1,160.9
	C152.8,297.7,153,298,153.3,298.7z M19.4,375.6c0,0.4-0.1,0.7-0.1,1.1c2.3,0.2,4.7,0.7,7,0.7c53.6-0.3,107.2-0.4,160.8-1
	c12.1-0.1,24.2-1.3,36.1-2.8c27.3-3.4,51.1-15.2,73-31.4c3.9-2.9,4.8-5.7,4-10.5c-1-6.6-0.5-13.4-0.6-20.2c0-2.2,0-4.4,0-7.6
	c-1.5,1.9-2.3,3.2-3.4,4.2c-1,1-2.4,1.6-3.6,2.5c-0.5-1.3-1.3-2.7-1.3-4c0.2-5.5,0.6-11,1-16.5c0.6-8,0.5-16.1,2-23.8
	c4.4-22.2,13.2-42.4,29.8-58.4c0.9-0.9,1.7-1.9,3.4-3.9c-21.1,3.5-40.4,10.5-60,7.7c-1.7,11.8-2.9,22.7-5,33.5
	c-2.9,15.3-10,28.6-21.8,39c-13.6,12-30,16.8-47.8,17.3c-12.6,0.3-25.3,0-37.9,0.2c-4.1,0.1-5.3-1.5-5.3-5.5
	c0.1-53.2,0.1-106.3,0-159.5c0-4.6,1.9-6.1,6-6.1c5.9,0,11.7-0.3,17.6,0c11.6,0.5,23.5,0,34.8,2.1c26.3,4.9,43.9,20.7,52.3,46.2
	c2.5,7.6,3.7,15.7,5.5,23.8c7.7,0,15.4-0.1,23,0.1c2.9,0.1,4.7-0.9,6.7-2.9c7.9-7.9,15.7-16,24.5-22.9c8.4-6.6,17.9-11.7,27.7-17.9
	c-4.2-8.5-7.9-17.8-13-26.2c-13.6-22.5-31.5-40.8-54.5-54c-22.4-12.9-46.3-20.5-72.1-22.1c-12.4-0.7-24.9-0.7-37.4-1
	c-16.1-0.3-32.3-0.7-48.4-0.9c-20.3-0.3-40.6-0.6-60.9-1c-5.2-0.1-10.4-0.5-15.6-1.2c-15.3-2.1-29.7-6.7-43.6-16c1,3,1.8,5,2.3,7
	c6.2,25,21.4,43.7,41.7,58.3c11.4,8.2,16.5,18.6,16.5,31.9c0.1,59.9,0.1,119.9,0,179.8c0,7.7-0.4,15.3-0.9,23
	c-0.6,8.9-4.2,16-12.4,20.6C39.4,362.9,29.5,369.4,19.4,375.6z"/>
<path d="M323.4,191c1.7-2,2.7-3.9,4.2-4.8c9.4-5.8,18.9-11.3,28.4-16.9c3.7-2.2,7.4-4.4,10.9-6.8c3.6-2.5,4.5-6.3,2-9.6
	c-4.1-5.3-8.9-10-13.3-15c-1-1.1-1.6-2.7-2.3-4c1.4-0.5,2.7-1.4,4.1-1.3c8,0.6,16.1,1.4,23.1,2.1c-1-7-2.1-14.4-3-21.8
	c-0.2-1.3,0.3-2.7,0.7-4c0.9-2.8,2.6-3.2,4.1-0.8c10.2,16.1,26.9,23.8,42.4,33.1c6,3.6,11.6,7.9,17.8,11.7c-3.3-3.8-5.9-8.8-10-11.3
	c-8.5-5.2-11.9-11.6-12.1-21.8c-0.1-11.5,1.4-22.4,4.9-33.2c0.4-1.2,0.7-2.4,1.4-3.4c0.6-0.7,1.8-1.5,2.6-1.3
	c0.6,0.1,1.5,1.5,1.5,2.3c0.5,17,10,29,21.6,40c12.1,11.4,23.9,23.1,35.8,34.6c0.7,0.7,1.5,1.4,3,1.4c-5.3-6-10.3-12.3-16-18
	c-6.4-6.4-13.2-12.5-20.1-18.3c-7-6-6.9-13.9-6.5-21.9c0.2-3.9,1.5-7.7,2.7-11.5c0.4-1.4,1.9-2.6,3.6-3.7
	c1.8,13.5,8.1,24.6,16.5,34.2c8,9.1,16.8,17.6,26,25.5c11.5,10,20.6,21.6,25.6,36c1.3,3.8,1.1,8.3,1.2,12.4c0.1,2.8,0.4,4.5,3.2,6.3
	c2.9,1.9,4.9,5.4,7.9,9c1.5-1.3,3.7-3.2,6-5c1.5-1.2,3.1-2.2,4.6-3.2c0.5,1.8,1.4,3.6,1.4,5.4c-0.1,15.9-6.5,29-18.5,39.4
	c-1.2,1.1-3.1,1.4-4.9,2.2c-0.6-4.5-0.8-8.3-1.6-12c-1.1-4.9-4.6-8.1-9.4-9.2c-5.8-1.3-11.6-2.2-17.5-2.8c-4.5-0.5-5.1-1-3.4-5.3
	c0.7-1.7,1.4-3.4,1.9-5.2c1.7-5.6,0.5-8.5-5-8.8c-9.6-0.5-19.2-0.1-28.8,0.2c-3.8,0.1-7.6,1.2-11.1,2.8c3.4,0.5,6.8,0.9,10.2,1.5
	c3.6,0.6,4.4,2.7,3.1,5.9c-1.3,3.1-2.6,6.2-3.7,9.4c-2.4,7-0.4,9.6,6.7,9.7c0.9,0,2.4,1.8,2.4,2.8c0,2.7-0.6,5.4-1.1,8.1
	c-1,5.3,1.3,8.1,6.6,8.4c1.9,0.1,3.7,0.8,5.5,1.2c-0.9,1.8-1.6,3.9-2.9,5.4c-7.9,9.1-18.1,13.8-29.8,15.8c-1.2,0.2-2.4-0.3-3.6-0.5
	c0.5-1.2,0.7-2.6,1.5-3.5c2.6-3.1,5.5-6,8.3-8.9c-0.2-0.3-0.5-0.7-0.7-1c-4,0.3-7.9,0.5-13.5,0.9c1.7-2.8,2.3-4.5,3.5-5.9
	c9.8-11.2,8-25.3-1-32.7c-7.4-6.1-16.2-7.5-25.6-5.4c-3.5,0.8-6.9,1.7-10.7,1.9c3.6-12.9,13-20.4,24-27.5c-4.6-1.3-8.8-2.3-13-3.6
	c-1.1-0.3-2-1.4-3-2.1c0.9-0.9,1.6-2.2,2.7-2.7c7.2-3.2,14.5-6.1,20.9-8.8c-11.4-2.3-36.1,7-43.2,17c4,0.7,7.8,1.3,11.6,2.2
	c1.2,0.3,2.2,1.2,3.3,1.8c-0.9,0.9-1.7,2-2.8,2.5c-10.2,5.1-20.7,9.9-30.7,15.3c-4,2.1-7.2,5.7-10.9,8.5c-1.3,0.9-2.9,1.3-4.4,1.9
	c-0.3-1.7-1-3.4-0.9-5.1c0.3-5.9,1.7-11.9,1.1-17.7c-0.7-6.6-7.4-11.5-15-11.9c-6-0.3-12,0.1-18,0.1
	C325.8,191.7,325.2,191.4,323.4,191z M408.3,217.4c7.8,0,15.5-0.9,22.8,0.2c8.7,1.4,15.7,6.5,18.4,15.5c2.5,8.6,1.8,17-3.9,24.5
	c-0.7,0.9-1.2,1.9-2.2,3.5c3.3-0.5,5.6-1.1,8-1.3c1.2-0.1,3.2,0.1,3.6,0.8c0.5,0.9,0.2,2.7-0.4,3.8c-1.4,2.7-3.1,5.3-5.2,8.7
	c11.1-2.3,19.1-7.6,25.8-15.7c-11-1.4-12.6-4.4-10.4-19c-7.2,0.3-11.1-4.4-9.2-11.4c1.2-4.6,3-9.1,4.8-14.4c-4.7-0.6-8.8-1-12.8-1.7
	c-1.7-0.3-3.3-1.3-5-1.9c1.5-1.1,2.8-2.9,4.4-3.3c4.7-1.3,9.5-2.7,14.3-2.8c10.1-0.3,20.2-0.2,30.2,0.6c5.1,0.4,7.2,4.8,5.9,9.9
	c-0.7,2.8-1.7,5.4-2.7,8.5c14.9,1.5,31.7,0.3,31.8,23.5c12.2-11.4,18.3-24.1,19-39.7c-2.7,2.2-4.8,4.3-7.3,5.9
	c-3.9,2.4-5.6,1.4-7.4-2.7c-0.9-2.1-2.4-4.6-4.3-5.4c-4.7-2.1-5.2-5.5-4.3-9.8c0.3-1.6,0.7-3.4,0.3-4.9
	c-3.2-11.4-8.2-21.9-16.6-30.4c-10.2-10.3-20.8-20-31.1-30.2c-10.1-10-17.5-21.6-21-36.3c-0.8,3.8-1.8,6.9-2.1,10.1
	c-0.6,8,0.5,15.2,7.4,21.1c8.7,7.3,16.8,15.3,24.7,23.5c7.1,7.3,13.4,15.2,16.7,25.1c0.4,1.2-0.1,2.7-0.2,4
	c-1.2-0.7-2.7-1.2-3.5-2.2c-3.6-4.2-6.5-9-10.4-12.9c-11.6-11.6-23.3-23.2-35.5-34.3c-11.5-10.4-19.4-22.7-23-39
	c-3.5,11.8-5.7,22.4-4.6,33.9c0.6,7,2.3,12.2,8.7,15.9c7.7,4.5,12.2,11.9,15.4,20.1c0.6,1.5,0.3,3.3,0.4,5c-0.4,0.2-0.8,0.4-1.3,0.5
	c-1.2-1.2-2.4-2.4-3.7-3.5c-5.7-4.9-10.8-10.7-17.1-14.5c-16.1-9.7-33.4-17.7-45.1-34c-0.7,7.8,0.5,14.6,3.2,21.2
	c0.6,1.6,0.5,3.4,0.7,5.1c-1.6,0.1-3.2,0.3-4.7,0.1c-7-0.7-14.1-1.5-21.1-2.3c3.2,3.6,6.2,6.7,8.9,10c7.6,9.4,8.4,16.5-3,22.8
	c-4.8,2.7-9.7,5.2-14.5,8c-6.7,3.9-13.3,7.9-20,11.8c0.2,0.4,0.3,0.8,0.5,1.2c4.4,0,8.8-0.1,13.2,0c13.1,0.4,21.2,10.4,18.9,23.2
	c-0.6,3.4-1,6.7-1.6,11c12.2-11.4,26.2-18.2,41.4-24.4c-3.3-0.6-5.7-0.9-8-1.5c-1.6-0.5-3.2-1.4-4.7-2.2c0.8-1.5,1.2-3.5,2.4-4.6
	c14.9-13.5,33.1-16.9,52.4-16.3c2,0.1,4,1.8,6.1,2.8c-2.1,0.9-4.1,2.6-6.2,2.6c-10,0.2-18.3,4.7-27.1,8.9c3.6,1.1,7,1.9,10.3,3.1
	c1.6,0.5,2.9,1.7,4.4,2.5c-1.2,1.4-2.2,3.2-3.7,4C419.7,202.8,413.2,209.7,408.3,217.4z"/>
<path d="M735.2,379.7c1.3-3.7,1.9-6.3,3.1-8.6c4.5-8.7,7.6-17.7,7.1-27.6c-0.7-14.9-6.1-27.9-16.1-39c-1-1.1-1.4-2.8-2.1-4.2
	c1.5-0.5,3.1-1.4,4.6-1.4c12.4,0,24.7-0.2,36.7-4.4c22.2-7.9,35.5-23.5,41.8-45.9c3.9-13.9,5.6-28,4.4-42.2
	c-2-24.2-10-45.9-30.5-60.7c-11.3-8.1-24.4-11.9-38.3-12.3c-12.3-0.4-24.7-0.1-37-0.1c-2.2,0-4.3-0.5-5.5,2.7
	c-0.5,1.3-4.3,2.1-6.5,1.8c-15-2.1-29.6-0.3-44.1,3.3c-6.1,1.6-12.1,3.7-19.3,6c1.2-2.8,2.1-4.8,3.2-7.5c-6.3,3-12,5.8-17.8,8.4
	c-2,0.9-4.2,1.2-6.3,1.8c-0.4-2.2-0.9-4.3-1.1-6.5c-0.7-7.3-0.5-14.9-2.2-22c-1.1-4.4-4.4-8.7-7.7-12c-10.7-11-24.3-19-33-32.1
	c-7.9-11.7-14.7-24-16.4-38.4c-0.2-1.4,0-2.8,0-4.2c1.7,0.3,3.6,0.2,5.2,0.9c4.8,2.3,9.3,5.3,14.2,7.4c12.3,5.3,25.4,7.6,38.7,8.1
	c5.7,0.2,11.4,0,17.1,0.1c19.5,0.3,39.1,0.6,58.6,0.9c16.6,0.3,33.2,0.6,49.8,0.9c24.2,0.5,48.1,2.6,71.1,11
	c29.2,10.6,53.3,28.1,72.1,52.9c16.3,21.4,25.8,45.7,30.1,72c3,18.4,2.5,36.8-0.6,55.3c-4.6,27.6-14.4,52.7-32.1,74.5
	c-19.3,23.6-43.7,40.1-72.3,50.6c-15,5.5-30.5,8.4-46.4,9.3C750.7,378.7,743.7,379.1,735.2,379.7z M738.1,377.4
	c14.4-1.5,27.6-2,40.5-4.3c20.2-3.5,39-11.3,56.4-22.3c21.8-13.8,40.1-31.1,52.6-53.8c18.8-34.3,24.7-71.2,18.5-109.7
	c-4.1-25.4-13.9-48.7-29.8-69.3c-19.1-24.8-43.4-42.2-73-52.5c-20.7-7.2-42-9.4-63.6-9.9c-17.8-0.5-35.7-0.7-53.5-1
	c-18-0.3-36-0.6-54-0.9c-10.6-0.2-21.2-0.2-31.8-1c-14.1-1.1-27.6-5.1-40.1-11.9c-1.8-1-3.4-2.2-5.6-3.6c0.2,2.3,0.2,3.9,0.5,5.3
	c3.1,12.3,8.9,23.4,16.2,33.7c8.4,11.9,20.4,20,31,29.5c6.1,5.5,9.8,11.7,10.7,19.5c0.8,7.1,1.1,14.2,1.6,21.4
	c8.7-4,17.1-9.2,27.8-11.3c-0.9,2.7-1.4,4.3-1.9,5.9c4.3-1.1,8.4-2.3,12.5-3.3c14.2-3.3,28.5-5.4,43.2-3.2c1.5,0.2,3.3-0.6,4.9-1.2
	c2.1-0.9,4-3,6-3c15.7,0,31.5-0.5,47,1c14.5,1.4,27.8,6.9,38.6,17.4c17.1,16.5,23.3,37.5,24.5,60.2c0.7,13.3-0.8,26.6-4.4,39.5
	c-5.3,18.6-14.7,33.8-32.4,43.3c-13.7,7.4-28.3,9.5-43.5,9.5c-1.9,0-3.8,0-6.2,0C750,325.2,753.9,349.7,738.1,377.4z"/>
<path d="M640.6,287.1c10.1,3.6,13.2,11.3,16,18.8c5.3,14.6,3.6,28.4-7.9,42c5.3-0.4,9.7,0,13.8-1.1c6.5-1.7,13.7-3.2,19.1-6.9
	c15.7-10.7,15.2-30.6-0.4-41.6c-0.4-0.3-0.9-0.4-1.2-0.7c-1.6-1.6-3.1-3.3-4.7-5c2.2-0.4,4.3-1.3,6.4-1.1
	c23.5,2.2,48,15.9,53.3,44.1c4.1,21.8-5.5,42-27.3,54.5c-9.7,5.5-20.3,7.5-31.3,7.7c-1.4,0-2.8,0-4.2,0.1c-0.2,0-0.4,0.3-1.1,0.7
	c11,5.4,21.7,10.3,34.2,7.6c1.2-0.3,2.6,0,3.8,0.1c-0.5,1.5-0.7,3.3-1.6,4.3c-7.4,8.3-17.2,12.9-27.7,15.6c-8.3,2.2-16.7,4.9-25.7,4
	c-23.1-2.1-40.9-12.3-51-33.7c-2.9-6.1-4.5-12.8-7.1-20.4c-2.1,5.3-5,10.2-5.8,15.3c-1.3,7.5-0.2,15,3.9,21.7
	c0.7,1.2,0.6,2.8,0.9,4.2c-1.6-0.1-3.4,0.4-4.7-0.3c-13.8-6.8-25.1-20.2-24.7-39.3c0.3-10.4,0-20.8-0.7-31.2
	c-0.5-7.2-4.8-12.9-10.2-17.5c-15.2-13-30.5-25.8-45.8-38.7c-6.3-5.3-9.4-12.2-10.6-20.2c-0.7-4.7-1.3-9.5-3-13.8
	c-1.2-3.1-3.6-5.9-6.1-8.3c-4-3.8-8.8-6.8-12.6-10.7c-5-5-7.1-11.3-5.1-18.4c0.2-0.7,0.9-1.7,1.6-1.8c0.6-0.1,1.8,0.6,2,1.2
	c3.8,10.2,12.7,11.8,21.8,13c2.9,0.4,5.9,0.3,8.6,1.2c5.2,1.7,10,4.1,10.6,10.7c0.2,2.4,1.1,4.7,1.7,7.1c2.2,8.8,4.2,9.6,11.3,9.3
	c15.6-0.6,26.2,7.7,37,16.8c13.6,11.5,27.3,23,41.4,33.8c5.8,4.5,13,6.7,20.6,3.3c7.8-3.4,11.5-9.9,13.2-17.7
	C642,293.4,641.1,290.8,640.6,287.1z M474,223.2c-0.4,0.3-0.9,0.6-1.3,0.9c2.2,3.9,3.7,8.2,6.6,11.5c3.5,4,8.4,6.8,12.2,10.5
	c2.7,2.6,5.2,5.7,6.8,9c1.4,3.1,1.5,6.8,2.2,10.2c1.7,8.1,2.6,16.5,9.7,22.1c1.8,1.4,3.6,2.9,5.3,4.4c13.1,11.2,26,22.5,39.4,33.4
	c9.1,7.4,13.9,16.6,14,28.1c0.1,10.4-0.8,20.9,0.2,31.2c1.4,13.7,10.1,22.8,22.5,30c-0.9-2.3-1.3-3.5-1.8-4.8
	c-4.8-12.3-2.9-23.7,4.4-34.4c0.8-1.1,2.4-2.4,3.5-2.3c1,0.1,2.2,1.9,2.6,3.2c1.7,5.8,2.8,11.9,4.9,17.5
	c7.7,20.1,29.7,32.7,48.8,33.7c10.1,0.5,19.4-2.2,28.7-5.1c8.1-2.5,16-6.2,21.1-12.1c-7-1.2-14.4-1.9-21.6-3.8
	c-4.6-1.2-9-3.9-13.2-6.2c-1-0.6-1.3-2.5-1.9-3.8c1.2-0.5,2.3-1.4,3.5-1.5c2.3-0.1,4.6,0.5,6.9,0.4c17.1-1.1,32.2-6.8,44-20
	c8.9-9.9,13.2-21.7,11.8-34.7c-2.1-19.8-13.7-33.3-31.6-41.6c-6.6-3.1-16.2-5.2-20.1-4.3c0.7,0.5,1.4,0.9,2,1.4
	c16,12.2,16,32.2,3.1,43.4c-10.9,9.5-24.2,11.7-38.2,9.8c-3.3-0.4-3.3-2.8-1.3-5.1c1.5-1.7,3.5-3.1,4.6-5c5.1-8.7,6.7-18.1,4-27.8
	c-2-7.3-5-14.3-10.9-19.6c-0.5,0.4-0.7,0.5-0.7,0.6c0,0.6-0.1,1.2-0.1,1.8c-0.3,9.6-4.7,16.8-13.3,21c-8.8,4.3-17.5,2.4-24.6-3.1
	c-15.8-12.2-31.1-25.2-46.5-37.8c-5.8-4.8-11.3-10.1-19.1-11.3c-4.8-0.8-9.8-0.9-14.6-1.4c-4.8-0.4-8.4-3.3-9.4-7.4
	c-0.6-2.4-1.6-4.7-1.7-7.1c-0.4-9.9-7.9-12.6-16.2-13.2C489,233.3,480.2,231.3,474,223.2z"/>
<path d="M344.9,377.1c-4.3,3-2.4,6.9-2.4,10.4c0,2.4,0.5,4.8,0.7,7.2c-2-1.4-4.2-2.5-5.9-4.2c-13.2-13.9-21.2-30.4-23.6-49.3
	c-1.6-13-2.3-26.3-1.7-39.4c0.4-8.8,3.6-17.5,5.6-26.3c0.6-2.8,1.6-5.6,2.1-8.4c0.2-1.2-0.2-2.6-0.4-3.9c-1.4,0.3-3.1,0.1-4.2,0.9
	c-2.4,1.5-4.4,3.5-6.6,5.3c-0.4-0.2-0.9-0.3-1.3-0.5c0-1.9-0.3-3.8,0-5.6c3.4-18.8,13.2-34.1,25.9-47.8c3.7-3.9,7.7-7.5,11.8-11
	c1.1-1,2.9-1.2,4.4-1.7c0.4,1.4,1.2,2.8,1.1,4.1c-1,9.9-2.1,19.7-3.2,29.6c-0.6,5.5-1,10.9-1.7,17.6c4.6-4.5,8.7-7.9,12.1-11.8
	c8.7-9.8,18.8-17.6,30.2-23.8c1.6-0.9,3.6-0.9,5.4-1.4c0,1.9,0.1,3.8-0.2,5.7c-1.3,7.2-2.7,14.3-4.2,22.5c6-4.1,11-7.6,16.1-11
	c5.7-3.9,11.8-6.6,18.9-5.7c1.4,0.2,3.9,0.7,4,1.3c0.2,1.4-0.4,3.2-1.3,4.5c-5.8,8.5-12.4,16.5-17.5,25.3
	c-9.9,17.3-12.3,36.1-7.9,55.5c4.8,21.5,18.4,34.8,39.8,39.6c8,1.8,16.1,0.1,23.7-3.3c17.8-7.9,31.6-20.4,42.5-36.4
	c6-8.8,4.5-10,14.4-1.7c8.6,7.2,17.1,14.5,25.9,21.5c3.5,2.8,4.3,5.1,2,9.3c-10.2,19-22.6,36.4-39.2,50.3
	c-15.4,13-33.1,22.1-53.2,25.3c-8.7,1.4-17.6,2.9-26.4,2.6c-31.4-1-57.9-12.8-78.4-37.2C350.1,382.5,347.5,379.9,344.9,377.1z
	 M548.5,339.7c-11.6-9.7-23.1-19.3-34.7-29c-1.6,2.3-2.9,4.2-4.2,6.1c-11.1,16.4-25.4,29.1-43.6,37.3c-22.6,10.1-47-0.8-58.3-17.1
	c-12-17.1-12.8-36.3-9.3-56c2.5-14,9.1-26.3,17.5-37.6c2.9-3.9,5.9-7.7,8.9-11.5c-0.2-0.5-0.4-1-0.6-1.5c-3.7,0.9-7.8,1-11.1,2.8
	c-7.1,3.9-13.7,8.8-20.6,13.1c-1.4,0.9-3.3,0.9-5,1.3c-0.3-1.6-1.1-3.2-0.8-4.7c1.2-7.5,2.7-14.9,4.4-24
	c-8.4,6.4-16.1,11.6-23.1,17.7c-6.8,5.9-12.9,12.7-19.4,19c-1.1,1.1-2.8,1.6-4.2,2.4c-0.5-1.5-1.4-3-1.3-4.4
	c0.9-11,2.1-21.9,3.2-32.9c0.5-4.6,0.9-9.2,1.4-14.3c-16.7,12.2-36.1,38.5-37.3,57.3c1.5-0.9,3-2.3,4.7-2.7c1.9-0.4,4.9-0.8,5.9,0.3
	c1.2,1.3,1.2,4.1,1.2,6.2c0,1.8-0.6,3.6-1.2,5.3c-5.6,18.7-9.1,37.7-6.6,57.3c2,15.7,5.7,30.9,14.2,44.6c2.9,4.7,6.5,8.9,9.7,13.4
	c1.1-1.9,1.1-3.1,1-4.4c-0.1-3.5-0.3-7.1,3.5-8.7c4-1.6,5.7,2,7.9,4.2c7.2,7.1,13.8,15.1,21.8,21.2c12.8,9.6,27.5,15.5,43.6,18.1
	c19,3,37.2,1,55.2-5.1c20.7-7.1,37.9-19.5,52.1-36C533.5,366,541.5,353.3,548.5,339.7z"/>
<path d="M640.3,180.6c-8.5,2.7-17.2,4.8-25.5,8.1c-16.7,6.7-31.7,16.1-44.1,29.4c-1.1,1.2-3.1,1.5-4.6,2.2c0-1.5-0.6-3.3,0-4.6
	c3.5-6.8,7-13.6,11-20c7.1-11.5,16.4-21,26.7-29.7c1.9-1.6,4.3-2.5,6.5-3.7c0.5,0.4,1,0.8,1.5,1.2c-1.2,2.6-2.5,5.1-3.4,7.8
	c-0.6,1.6-0.5,3.5-0.6,5.3c1.6-0.4,3.6-0.3,4.9-1.2c7.9-5.6,15.3-11.9,23.4-17.1c6-3.8,12.8-6.3,19.2-9.2c1-0.4,2.4-0.1,4.8-0.1
	c-1.7,1.9-2.5,3.1-3.6,4c-2.5,2-5.4,3.7-7.6,5.9c-1,1.1-0.9,3.3-1.4,4.9c1.3,0.3,2.8,1,4,0.7c4.6-1,9.2-2.2,13.7-3.5
	c18.1-5.3,35.6-3.7,52.7,3.9c10.2,4.5,19.6,10.2,27.6,18c1.1,1.1,1.5,3,2.3,4.5c-1.6,0.1-3.1,0.5-4.7,0.4
	c-15.3-0.9-30.2,1.5-44.5,6.8c-4.4,1.6-8.5,4.2-12.9,5.9c-1.7,0.6-4.3,0.7-5.9-0.2c-23.1-12.8-51.7-2.8-66.8,17.4
	c-12.4,16.6-22.8,34.2-32.4,52.3c-1.9,3.6-3.7,3.1-6.5,1c-7.8-5.9-14.1-13.8-23.7-17.2c-2.3-0.8-2.6-2.8-0.9-4.8
	c21.2-25.5,44.1-48.8,75.4-61.9c5-2.1,10.3-3.7,15.4-5.6C640.4,181.3,640.3,181,640.3,180.6z M577.7,269.8
	c9.8-18.4,20.3-36.3,32.7-53.2c15.7-21.5,46-31.4,70.1-18.9c1.3,0.7,3.8,0.3,5.3-0.4c12.6-6.2,25.8-10.2,39.8-11.3
	c5.5-0.4,11.1-0.9,17.7-1.5c-24.1-19.2-49.1-30-79.5-20c-4.6,1.5-9.5,2.4-14.3,3.1c-3.3,0.5-5.7-1.5-4.8-4.9c0.8-3.1,2.7-6,4.2-9.3
	c-4.2,2.7-8.7,5.4-12.9,8.5c-7.5,5.4-14.7,11.2-22.4,16.2c-2,1.3-5.9,1.5-8,0.4c-2.7-1.4-1.7-4.8-0.4-7.4c0.4-0.9,0.8-1.8,1.3-2.7
	c-15.8,12.5-27.9,27.7-37.5,46.8c5.6-4.8,10-9.1,14.9-12.7c15.2-11.2,32.2-18.8,50.6-22.9c5.8-1.3,11.8-1.5,17.7-1.9
	c1.2-0.1,2.6,1.1,3.8,1.7c-1.2,0.9-2.4,1.9-3.6,2.7c-0.3,0.2-0.9,0-1.4,0.1c-9.8,3.2-20,5.5-29.4,9.8c-22.3,10.1-40.9,25.3-56.8,44
	c-4.3,5.1-8.7,10.1-12.5,14.4C561,257,569.3,263.3,577.7,269.8z"/>
<path d="M378.4,74.7c-3.8,14.9-10.6,27.7-10.3,42.3c0,1-0.8,2.1-1.3,3.1c-1-0.8-2.5-1.3-3-2.3c-3.8-7.9-6.2-15.9-7.1-24.9
	c-1.2-11.4-0.3-22.4,2.8-33c8.2-27.4,27.2-44.5,53.5-54.1c12.5-4.5,25.6-6.4,38.8-5.5c25,1.7,48,9,65.2,28.4
	c9.8,11.1,15.4,24.5,17.6,39.2c1.8,11.7,1,23.2-2,34.5c-4,14.9-10,28.9-19.3,41.3c-2.5,3.3-4.6,1.2-6.5-0.6
	c-7.7-7.5-15.3-15.2-23-22.8c-2.6-2.6-5.2-5.2-7.7-7.9c-2.8-3-2.9-5.9-1-9.9c6.9-14.4,7.6-29.3,0-43.6
	c-11.3-21.4-37.9-20.8-50.9-2.6c-4.8,6.7-7,14.1-7.4,22.3c-0.2,4.2-2,8.2-2.6,12.4c-1.4,8.4-2.5,16.8-3.7,25.2
	c-0.2,1.3-0.7,2.5-1,3.8c-1.3-0.4-2.7-0.5-3.7-1.2c-7.6-4.7-13.8-10.5-17-19.2C386.1,91.4,382.3,83.7,378.4,74.7z M510,142.8
	c1.2-1.4,1.8-1.9,2.2-2.5c14.3-21.8,23.5-44.9,19.7-71.7c-3.5-24.5-16.1-42.8-37.8-54.4c-18.1-9.6-37.6-12.8-58.2-10.6
	c-19.2,2-36.1,8.8-50.7,21.5c-19.9,17.3-27.7,39.5-26.2,65.4c0.5,7.7,1.8,15.3,6,22.3c0.5-2.4,0.7-4.6,1.3-6.6
	c2.9-9.9,5.9-19.8,9-29.7c0.5-1.6,2-3,3-4.5c1.4,1.4,3.2,2.6,4,4.3c3.6,8.1,6.8,16.4,10.4,24.5c3.1,6.8,8.5,11.6,15.2,15.5
	c0.5-6.3,0.6-11.9,1.6-17.2c1.6-9.1,4.3-18.1,5.6-27.2c1.7-11.6,7.1-20.7,16.7-26.8c13-8.3,31.4-7.1,41.5,5.8
	c12.7,16.2,12,34,4.8,52c-1.6,3.9-1.2,6.1,1.4,8.8C489.6,122,499.6,132.2,510,142.8z"/>
<path d="M682.8,213.9c6.2-3.5,11.5-6.7,17-9.6c2.6-1.5,4.1-0.5,4.1,2.6c0,25.7,0,51.5-0.1,77.2c0,0.4-0.3,0.8-0.7,1.9
	c-1.8-0.3-3.7-0.4-5.5-0.9c-10.9-3.2-21.9-3.6-33.2-2.2c-6.1,0.8-12.1,0.8-17.9-3.6c-7.3-5.6-15.5-9.8-24.2-14
	c2.8,8.1,5.5,16.3,8.3,24.4c1.9,5.4,1,10.9-2.2,13.6c-3.1,2.6-9.3,2.9-13.8,0c-1.5-1-3-3.3-3-5c-0.2-20-0.2-40.1-0.1-60.1
	c0-1.7,0.7-3.8,1.7-5.1c4.8-6,9.3-12.4,14.8-17.6c14.5-13.8,37-14.7,53-2.9C681.8,213.2,682.7,213.9,682.8,213.9z M700.9,205.9
	c-4.6,3-8.4,5-11.6,7.8c-5.4,4.7-5.4,5-11.1,0.5c-8-6.4-16.8-7.8-26.8-6.5c-17.7,2.2-27.2,14.7-36.4,27.8c-0.6,0.9-0.9,2.3-0.9,3.4
	c-0.1,19.6-0.1,39.1,0.1,58.7c0,1.3,1.4,3.5,2.4,3.7c3.1,0.5,6.9,1.2,9.4-0.2c3.3-1.7,3.5-5.7,2.2-9.4c-2.9-8.2-5.8-16.4-8.4-24.7
	c-0.5-1.5,0.2-3.4,0.3-5.2c1.6,0.3,3.3,0.3,4.7,1.1c7.7,4.4,15.8,8.4,22.8,13.8c5.6,4.3,11.3,3.9,17.4,3.6c2.7-0.1,5.5-0.9,8.2-0.7
	c9.2,0.7,18.4,1.6,27.6,2.5C700.9,257.6,700.9,232.6,700.9,205.9z"/>
<path d="M683.5,319.4c0.5,8.3-6.2,13.9-13.3,16c-2.6,0.8-3.2-0.9-3.1-3.5c0.4-8.3,0.6-16.6,0.6-24.9c0-3.4,1.2-4.4,4.9-3.1
	C677.9,305.6,684.8,313.6,683.5,319.4z M671.1,306.6c0,4,0,8.2,0,12.3c0,4.3,0,8.5,0,12.7c5.8-1.8,9.5-6,9.6-11.3
	C680.9,313.8,677.4,308.9,671.1,306.6z"/>
<path d="M698.3,150c-2.7-0.4-5.4-0.7-8.1-1.2c-0.7-0.1-1.7-1-1.8-1.7c-0.1-0.6,0.7-1.7,1.3-2c3.1-1.3,6.2-2.6,9.4-3.4
	c1.3-0.3,3.9,0.1,4.1,0.7c0.6,1.9,0.7,4.2,0.2,6.2c-0.2,0.7-2.5,0.9-3.8,1.3c-0.4,0.1-0.9,0-1.4-0.1
	C698.3,149.9,698.3,150,698.3,150z"/>
<path d="M26.2,379.3c-1.7,0-3.4-0.2-5-0.4c-0.7-0.1-1.5-0.2-2.2-0.3l-2-0.2l0.5-4.1l0.8-0.5c3-1.9,6.1-3.7,9.1-5.6
	c6.9-4.3,14.1-8.8,21.3-12.8c7.2-4,10.8-10.1,11.4-19c0.6-8.8,0.9-16.1,0.9-22.9c0.1-65.5,0.1-124.4,0-179.8c0-13-5-22.7-15.7-30.3
	C22.6,87.1,8.7,67.6,2.8,43.9c-0.3-1.2-0.7-2.5-1.3-4C1.3,39,1,38.1,0.6,37l-1.8-5.5l4.8,3.2c12.5,8.4,26.1,13.4,42.8,15.7
	c4.9,0.7,10,1.1,15.3,1.2c12.7,0.3,25.6,0.5,38,0.6c7.6,0.1,15.3,0.2,22.9,0.4c15.7,0.3,32,0.6,48.4,0.9c3.4,0.1,6.7,0.1,10.1,0.2
	c9,0.1,18.2,0.3,27.4,0.8c25.3,1.5,49.9,9,73,22.3c22.6,13,41.2,31.4,55.2,54.7c3.6,5.9,6.5,12.2,9.3,18.3c1.3,2.8,2.5,5.4,3.8,8.1
	l0.8,1.6l-1.5,1c-3,1.9-6.1,3.8-9,5.6c-6.6,4-12.8,7.8-18.5,12.2c-7.3,5.7-14.1,12.5-20.6,19.1c-1.2,1.2-2.5,2.5-3.7,3.7
	c-2.5,2.5-4.8,3.5-7.9,3.5l-0.3,0c-2.9-0.1-6-0.1-9.9-0.1c-2.2,0-4.4,0-6.5,0c-2.2,0-4.4,0-6.6,0h-1.6l-0.4-1.6
	c-0.6-2.6-1.1-5.2-1.6-7.7c-1.1-5.5-2.2-10.8-3.8-15.9c-8.2-25-25.3-40.1-50.8-44.9c-8.1-1.5-16.7-1.7-25-1.8
	c-3.1-0.1-6.4-0.1-9.6-0.2c-1.6-0.1-3.4-0.1-5.5-0.1c-2.1,0-4.1,0-6.2,0.1c-1.9,0-3.9,0.1-5.8,0.1c-1.6,0-2.6,0.3-3.1,0.8
	c-0.6,0.5-0.8,1.7-0.8,3.3c0.1,46.1,0.1,96.8,0,159.5c0,1.5,0.2,2.5,0.6,2.9c0.4,0.4,1.2,0.6,2.5,0.6l0.2,0c3.1,0,6.4-0.1,10.6-0.1
	c2.1,0,4.2,0,6.3,0c2.1,0,4.2,0,6.3,0c4,0,9.4,0,14.7-0.2c19-0.5,34.3-6,46.5-16.8c11.1-9.8,18.2-22.6,21.1-37.9
	c1.4-7.3,2.4-14.7,3.4-22.5c0.5-3.6,1-7.2,1.5-10.9l0.3-2l2,0.3c3,0.4,6,0.6,9.2,0.6c10.7,0,21.3-2.3,32.6-4.8
	c5.7-1.2,11.6-2.5,17.6-3.5l5.5-0.9l-3.7,4.2c-0.6,0.7-1.1,1.3-1.6,1.8c-0.8,0.9-1.3,1.6-2,2.2c-14.9,14.4-24.5,33.1-29.3,57.4
	c-1.1,5.3-1.3,11-1.6,16.5c-0.1,2.3-0.2,4.7-0.4,7.1c-0.4,5.1-0.8,10.9-1,16.4c0,0.3,0.1,0.6,0.2,1c0.5-0.3,0.9-0.6,1.3-1
	c0.6-0.5,1.1-1.2,1.8-2.2c0.4-0.5,0.8-1.1,1.3-1.7l3.6-4.5v5.8c0,1.1,0,2,0,2.9c0,1.7,0,3.2,0,4.7c0,2,0,4,0,6
	c-0.1,4.6-0.1,9.4,0.6,13.9c0.9,5.7-0.5,9.2-4.8,12.4c-24.7,18.3-48.8,28.6-73.9,31.7c-14.6,1.8-25.8,2.7-36.4,2.8
	c-42.9,0.5-86.6,0.6-128.8,0.8C47.6,379.2,26.2,379.3,26.2,379.3z"/>
<path d="M19.4,375.6c10.1-6.2,20-12.6,30.3-18.4c8.2-4.7,11.8-11.7,12.4-20.6c0.5-7.6,0.9-15.3,0.9-23c0.1-59.9,0.1-119.9,0-179.8
	c0-13.4-5.1-23.8-16.5-31.9C26.2,87.2,10.9,68.4,4.8,43.4c-0.5-2-1.3-3.9-2.3-7c13.9,9.3,28.3,13.9,43.6,16
	c5.1,0.7,10.4,1.1,15.6,1.2c20.3,0.4,40.6,0.6,60.9,1c16.1,0.3,32.3,0.6,48.4,0.9c12.5,0.3,24.9,0.3,37.4,1
	c25.8,1.5,49.7,9.2,72.1,22.1c22.9,13.2,40.9,31.5,54.5,54c5.1,8.5,8.8,17.7,13,26.2c-9.8,6.2-19.3,11.3-27.7,17.9
	c-8.8,6.9-16.6,15-24.5,22.9c-2.1,2-3.9,3-6.7,2.9c-7.7-0.2-15.4-0.1-23-0.1c-1.8-8.1-3-16.2-5.5-23.8c-8.3-25.5-26-41.3-52.3-46.2
	c-11.4-2.1-23.2-1.6-34.8-2.1c-5.8-0.2-11.7,0-17.6,0c-4.1,0-6,1.5-6,6.1c0.1,53.2,0.1,106.3,0,159.5c0,3.9,1.2,5.5,5.3,5.5
	c12.6-0.2,25.3,0.1,37.9-0.2c17.8-0.5,34.2-5.3,47.8-17.3c11.8-10.4,18.9-23.7,21.8-39c2-10.8,3.3-21.7,5-33.5
	c19.6,2.8,38.9-4.2,60-7.7c-1.8,2-2.5,3-3.4,3.9c-16.7,16-25.5,36.2-29.8,58.4c-1.5,7.8-1.4,15.9-2,23.8c-0.4,5.5-0.8,11-1,16.5
	c0,1.3,0.8,2.7,1.3,4c1.2-0.8,2.5-1.5,3.6-2.5c1.1-1,1.9-2.3,3.4-4.2c0,3.1,0,5.4,0,7.6c0.1,6.7-0.4,13.6,0.6,20.2
	c0.7,4.8-0.2,7.6-4,10.5c-21.9,16.2-45.7,28-73,31.4c-12,1.5-24.1,2.6-36.1,2.8c-53.6,0.6-107.2,0.7-160.8,1c-2.3,0-4.7-0.4-7-0.7
	C19.3,376.3,19.4,375.9,19.4,375.6z"/>
<path d="M447.7,272.2c0.6-1,1.2-2,1.8-2.9c1.3-2.1,2.4-3.8,3.4-5.7c0.3-0.6,0.4-1.2,0.5-1.7c-0.3-0.1-0.7-0.1-1.2-0.1
	c-0.2,0-0.3,0-0.5,0c-1.6,0.1-3.2,0.4-5,0.8c-0.9,0.2-1.8,0.3-2.8,0.5l-4.3,0.7l2.3-3.8c0.4-0.6,0.7-1.1,0.9-1.5
	c0.5-0.9,0.9-1.5,1.4-2.2c4.9-6.5,6.1-14.1,3.5-22.7c-2.3-7.7-8.2-12.8-16.8-14.1c-2.4-0.4-5.1-0.6-8.3-0.6c-2.3,0-4.5,0.1-6.9,0.2
	c-2.4,0.1-4.8,0.2-7.3,0.2h-3.7l2-3.1c5.6-8.7,12.6-15.5,20.8-20.2c0.6-0.3,1.1-1,1.7-1.8c-0.7-0.5-1.4-0.9-2.1-1.1
	c-2.3-0.8-4.6-1.4-7-2.1c-1-0.3-2.1-0.6-3.2-0.9l-5-1.4l4.7-2.3l2-1c8-3.9,16.2-8,25.9-8.1c0.6,0,1.3-0.3,2.1-0.7
	c-0.7-0.4-1.4-0.7-2-0.7c-1.4,0-2.7-0.1-4-0.1c-20.1,0-35,5-47,15.9c-0.5,0.4-0.8,1.3-1.2,2.2c0.9,0.5,1.8,0.9,2.7,1.2
	c1.4,0.4,2.9,0.7,4.8,1c0.9,0.2,1.9,0.3,2.9,0.5l6.8,1.3l-6.4,2.6c-13.7,5.5-28.2,12.2-40.8,24l-4.2,3.9l0.8-5.6
	c0.2-1.4,0.4-2.7,0.6-3.9c0.4-2.6,0.7-4.8,1.1-7.1c1-5.6-0.2-10.8-3.3-14.6c-3.1-3.8-8-6-13.7-6.2c-1.5,0-3-0.1-4.9-0.1
	c-1.4,0-2.7,0-4.1,0c-1.4,0-2.8,0-4.2,0H329l-1.5-4.1l1.4-0.9c2-1.2,4-2.4,6-3.6c4.6-2.7,9.3-5.5,14-8.3c2.9-1.7,6-3.3,8.9-4.9
	c1.9-1,3.8-2,5.7-3.1c4.5-2.5,6.9-5.1,7.5-7.9c0.6-3.1-1-6.9-5.1-12c-1.8-2.2-3.7-4.3-5.8-6.6c-1-1.1-2-2.2-3.1-3.4l-3.5-3.9
	l10.8,1.2c5.1,0.6,10.4,1.2,15.5,1.7c0.3,0,0.6,0,0.9,0c0.5,0,1,0,1.5-0.1c-0.1-1-0.1-1.8-0.4-2.5c-3-7.3-4.1-14.3-3.4-22.1l0.5-5.4
	l3.1,4.4c9.4,13.1,22.9,20.9,35.9,28.5c2.8,1.6,5.7,3.3,8.6,5c4.6,2.8,8.5,6.5,12.4,10.1c1.6,1.5,3.3,3.1,5,4.6
	c0.6,0.5,1.1,1,1.7,1.5c0-0.5-0.1-0.9-0.2-1.3c-3.6-9.3-8.2-15.4-14.5-19.1c-7.1-4.1-9-10-9.7-17.4c-1.2-12.7,1.6-24.1,4.7-34.6
	l2.2-7.4l1.7,7.5c3.3,15,10.4,27,22.4,37.9c12.2,11.1,23.8,22.6,35.6,34.3c2.5,2.5,4.6,5.3,6.7,8c1.2,1.7,2.5,3.4,3.9,5
	c0.1,0.1,0.2,0.2,0.3,0.3c0-0.1,0-0.2,0-0.2c-3.5-10.4-10.5-18.4-16.3-24.3c-7.5-7.7-15.7-15.8-24.6-23.3
	c-8.2-6.9-8.6-15.8-8.1-22.8c0.2-2.3,0.7-4.5,1.3-6.9c0.3-1.1,0.6-2.3,0.8-3.5l3.9,0c3.2,13.4,9.9,24.9,20.5,35.3
	c4.4,4.3,9,8.7,13.4,12.9c5.9,5.6,11.9,11.4,17.8,17.3c7.8,7.9,13.4,18.1,17.1,31.2c0.5,1.8,0.1,3.8-0.2,5.4l-0.1,0.4
	c-0.8,4.2,0,6.1,3.2,7.6c2.9,1.3,4.7,5,5.3,6.5c1.2,2.8,1.8,2.8,2.1,2.8c0.4,0,1.1-0.2,2.4-1c1.6-1,3.1-2.3,4.7-3.7
	c0.8-0.7,1.6-1.4,2.5-2.1l3.5-2.8l-0.2,4.5c-0.7,16.2-7,29.3-19.6,41l-3.3,3.1l0-4.6c-0.1-19-11.8-20-25.3-21.1
	c-1.6-0.1-3.1-0.3-4.6-0.4l-2.5-0.3l0.8-2.4c0.3-1,0.6-1.9,0.9-2.8c0.7-1.9,1.3-3.7,1.7-5.6c0.6-2.2,0.4-4.2-0.6-5.6
	c-0.8-1.1-1.9-1.7-3.5-1.8c-6.5-0.5-13.1-0.7-20.4-0.7c-3.1,0-6.3,0-9.6,0.1c-4.1,0.1-8.4,1.3-12.6,2.4l-1.3,0.3
	c-0.4,0.1-0.8,0.4-1.3,0.8c0.6,0.2,1.1,0.4,1.7,0.5c2.8,0.5,5.6,0.8,8.7,1.2c1.3,0.2,2.6,0.3,4,0.5l2.4,0.3l-0.8,2.3
	c-0.6,1.7-1.1,3.3-1.7,4.8c-1.2,3.3-2.3,6.3-3.1,9.4c-0.7,2.7-0.5,5,0.8,6.6c1.2,1.5,3.2,2.4,5.9,2.4c0.2,0,0.4,0,0.6,0l2.4-0.1
	l-0.4,2.4c-1.2,8.1-1.1,11.8,0.4,13.7c1.2,1.5,3.6,2.4,8.3,3l3.6,0.5l-2.4,2.8c-7.4,8.8-16,14-27,16.4l-4.5,1L447.7,272.2z
	 M478.2,174.6c-0.4,0.5-0.7,1.6-0.6,2c1.4,3.6,3.2,7.8,5.6,11.5c2.6,4,6.9,5.3,10.9,6.1c2.1,0,2.6-0.5,2.6-0.5l0,0
	c0,0,0.1-0.5-0.6-2c-4.1-8.1-9.3-13.5-15.9-16.7c-0.5-0.2-1.3-0.4-1.8-0.4C478.3,174.6,478.3,174.6,478.2,174.6z"/>
<path d="M408.3,217.4c4.9-7.7,11.5-14.6,20.1-19.5c1.5-0.9,2.4-2.7,3.7-4c-1.5-0.9-2.8-2-4.4-2.5c-3.3-1.1-6.7-2-10.3-3.1
	c8.7-4.3,17.1-8.8,27.1-8.9c2.1,0,4.1-1.7,6.2-2.6c-2-1-4-2.7-6.1-2.8c-19.3-0.6-37.5,2.8-52.4,16.3c-1.2,1.1-1.6,3-2.4,4.6
	c1.6,0.7,3.1,1.7,4.7,2.2c2.3,0.6,4.7,0.9,8,1.5c-15.3,6.1-29.2,13-41.4,24.4c0.6-4.3,1-7.6,1.6-11c2.2-12.8-5.9-22.8-18.9-23.2
	c-4.4-0.1-8.8,0-13.2,0c-0.2-0.4-0.3-0.8-0.5-1.2c6.6-3.9,13.3-7.9,20-11.8c4.8-2.8,9.7-5.3,14.5-8c11.4-6.3,10.6-13.5,3-22.8
	c-2.7-3.3-5.6-6.4-8.9-10c7.1,0.8,14.1,1.6,21.1,2.3c1.6,0.2,3.2-0.1,4.7-0.1c-0.2-1.7-0.1-3.6-0.7-5.1c-2.7-6.6-3.9-13.4-3.2-21.2
	c11.7,16.4,29,24.3,45.1,34c6.3,3.8,11.5,9.6,17.1,14.5c1.3,1.1,2.5,2.4,3.7,3.5c0.4-0.2,0.8-0.4,1.3-0.5c-0.1-1.7,0.2-3.5-0.4-5
	c-3.1-8.2-7.7-15.6-15.4-20.1c-6.4-3.7-8.1-8.9-8.7-15.9c-1-11.4,1.1-22.1,4.6-33.9c3.6,16.3,11.5,28.5,23,39
	c12.2,11.1,23.9,22.7,35.5,34.3c3.9,3.9,6.9,8.6,10.4,12.9c0.8,1,2.3,1.5,3.5,2.2c0.1-1.4,0.6-2.8,0.2-4
	c-3.3-9.9-9.6-17.8-16.7-25.1c-8-8.1-16.1-16.1-24.7-23.5c-6.9-5.8-8-13.1-7.4-21.1c0.2-3.2,1.3-6.2,2.1-10.1
	c3.5,14.7,10.9,26.3,21,36.3c10.3,10.1,20.9,19.9,31.1,30.2c8.4,8.5,13.4,19,16.6,30.4c0.4,1.5,0,3.3-0.3,4.9
	c-0.8,4.3-0.4,7.7,4.3,9.8c1.9,0.9,3.5,3.3,4.3,5.4c1.7,4.1,3.5,5.1,7.4,2.7c2.5-1.6,4.7-3.7,7.3-5.9c-0.7,15.6-6.7,28.3-19,39.7
	c-0.1-23.2-16.8-21.9-31.8-23.5c1-3.1,2-5.8,2.7-8.5c1.3-5.1-0.8-9.5-5.9-9.9c-10-0.8-20.1-0.9-30.2-0.6c-4.8,0.1-9.6,1.6-14.3,2.8
	c-1.6,0.4-3,2.2-4.4,3.3c1.7,0.7,3.3,1.6,5,1.9c4,0.7,8.1,1.1,12.8,1.7c-1.8,5.3-3.6,9.8-4.8,14.4c-1.9,7,2.1,11.7,9.2,11.4
	c-2.2,14.6-0.6,17.6,10.4,19c-6.7,8-14.8,13.4-25.8,15.7c2.1-3.4,3.8-5.9,5.2-8.7c0.6-1.1,0.9-2.9,0.4-3.8c-0.4-0.7-2.4-0.9-3.6-0.8
	c-2.4,0.2-4.8,0.7-8,1.3c1-1.7,1.5-2.7,2.2-3.5c5.7-7.5,6.4-15.9,3.9-24.5c-2.6-9-9.6-14.1-18.4-15.5
	C423.7,216.5,416.1,217.4,408.3,217.4z M493.9,196.1c4.7,0,5.8-1.8,3.9-5.4c-3.8-7.5-9-13.8-16.8-17.6c-1.2-0.6-3.4-0.9-4.1-0.2
	c-1,0.9-1.7,3.1-1.2,4.3c1.6,4.1,3.4,8.2,5.8,11.9C484.5,193.8,489.6,195.3,493.9,196.1z"/>
<path d="M736.4,376.4c14.8-26,12.5-49.4-7-73.6l-2.6-3.3h10.6c17.1,0,30.6-2.9,42.3-9.2c15.7-8.4,25.7-21.8,31.4-42
	c3.6-12.7,5.1-25.8,4.4-38.9c-1.4-25.7-9-44.4-23.9-58.9c-10.1-9.8-22.7-15.5-37.4-16.9c-9.6-0.9-19.1-1-27.2-1c-3.2,0-6.4,0-9.5,0
	c-3.2,0-6.4,0-9.5,0h-0.5c-0.6,0-1.7,0.7-2.6,1.3c-0.8,0.6-1.7,1.1-2.6,1.5l-0.2,0.1c-1.5,0.6-3.1,1.3-4.9,1.4c-0.3,0-0.6,0-0.9-0.1
	c-4-0.6-8.1-0.9-12.4-0.9c-8.8,0-18.1,1.3-30,4.1c-2.8,0.7-5.5,1.4-8.4,2.2c-1.3,0.4-2.7,0.7-4.1,1.1l-3.5,0.9l2-6
	c-6.4,1.7-12,4.5-17.5,7.2c-2.1,1.1-4.3,2.1-6.5,3.1l-2.6,1.2l-0.2-2.9c-0.2-2.2-0.3-4.4-0.4-6.6c-0.3-4.8-0.6-9.8-1.2-14.7
	c-0.8-7.1-4-12.9-10-18.3c-2.9-2.6-6-5.2-9-7.7c-7.9-6.6-16.1-13.4-22.3-22.2c-8.2-11.7-13.6-22.9-16.5-34.4
	c-0.3-1.1-0.4-2.3-0.4-3.6c0-0.6-0.1-1.3-0.1-2.1l-0.4-4.1l3.5,2.2c0.7,0.5,1.4,0.9,2.1,1.4c1.2,0.8,2.3,1.5,3.4,2.1
	c12.2,6.6,25.4,10.5,39.3,11.6c8.1,0.6,16.3,0.8,24.3,0.9c2.4,0,4.9,0.1,7.3,0.1c12.6,0.3,25.4,0.5,37.8,0.7
	c5.4,0.1,10.8,0.2,16.2,0.3c5.4,0.1,10.9,0.2,16.3,0.3c12.2,0.2,24.8,0.4,37.2,0.7c17.8,0.5,41.2,2.1,64.2,10
	c29.9,10.4,54.8,28.2,73.9,53.1c15.8,20.6,25.9,44.2,30.1,70.2c6.3,39.4,0,76.7-18.7,111c-11.8,21.6-29.3,39.4-53.2,54.6
	c-18.2,11.5-37.5,19.1-57.1,22.5c-8.9,1.6-17.8,2.3-27.3,3.1c-4.3,0.4-8.8,0.7-13.3,1.2l-3.8,0.4L736.4,376.4z"/>
<path d="M738.1,377.4c15.7-27.7,11.9-52.2-7.2-75.9c2.4,0,4.3,0,6.2,0c15.2,0,29.8-2.1,43.5-9.5c17.6-9.5,27.1-24.6,32.4-43.3
	c3.7-13,5.2-26.2,4.4-39.5c-1.2-22.7-7.5-43.7-24.5-60.2c-10.8-10.5-24.1-16.1-38.6-17.4c-15.6-1.5-31.3-0.9-47-1c-2,0-3.9,2.1-6,3
	c-1.5,0.7-3.3,1.5-4.9,1.2c-14.6-2.3-28.9-0.2-43.2,3.2c-4.1,1-8.2,2.1-12.5,3.3c0.5-1.6,1-3.2,1.9-5.9
	c-10.8,2.1-19.2,7.3-27.8,11.3c-0.5-7.2-0.8-14.4-1.6-21.4c-0.9-7.9-4.6-14-10.7-19.5c-10.6-9.5-22.7-17.6-31-29.5
	c-7.3-10.4-13.1-21.4-16.2-33.7c-0.4-1.5-0.3-3-0.5-5.3c2.2,1.4,3.8,2.6,5.6,3.6c12.5,6.8,26,10.7,40.1,11.9
	c10.6,0.8,21.2,0.8,31.8,1c18,0.4,36,0.6,54,0.9c17.8,0.3,35.7,0.5,53.5,1c21.6,0.6,43,2.8,63.6,9.9c29.6,10.3,53.9,27.6,73,52.5
	c15.8,20.6,25.7,43.9,29.8,69.3c6.2,38.5,0.3,75.4-18.5,109.7c-12.5,22.7-30.7,40.1-52.6,53.8c-17.4,11-36.2,18.7-56.4,22.3
	C765.7,375.4,752.6,375.9,738.1,377.4z"/>
<path d="M656.4,429.5c-0.9,0-1.8,0-2.6-0.1c-18.9-1-42.3-13.3-50.5-35c-1.3-3.5-2.3-7.2-3.1-10.8c-0.6-2.2-1.1-4.6-1.8-6.8
	c-0.2-0.6-0.7-1.4-1-1.7c-0.4,0.2-1.1,0.8-1.5,1.3c-7.2,10.6-8.6,21.2-4.2,32.6c0.3,0.8,0.6,1.7,1.1,2.8l2.8,7.3l-4.9-2.8
	c-14.7-8.6-22.1-18.6-23.4-31.5c-0.7-6.8-0.5-13.7-0.4-20.4c0.1-3.6,0.2-7.3,0.1-11c-0.1-10.8-4.5-19.5-13.3-26.6
	c-9.3-7.6-18.6-15.5-27.5-23.2c-4-3.4-7.9-6.8-11.9-10.2l-0.5-0.4c-1.6-1.3-3.2-2.7-4.8-4c-6.9-5.5-8.4-13.1-9.8-20.5
	c-0.2-0.9-0.4-1.8-0.6-2.8c-0.2-1.2-0.4-2.4-0.6-3.6c-0.3-2.3-0.6-4.4-1.4-6.2c-1.3-2.8-3.4-5.6-6.3-8.4c-1.6-1.6-3.4-2.9-5.3-4.4
	c-2.4-1.9-4.9-3.8-7-6.2c-2.2-2.4-3.6-5.4-5-8.2c-0.6-1.2-1.2-2.4-1.8-3.6l-0.9-1.6l4.4-2.9l1.1,1.5c6,7.8,14.5,9.4,22.9,10
	c4.3,0.3,17.5,1.3,18,15.1c0.1,1.4,0.5,2.9,1,4.4c0.2,0.7,0.5,1.5,0.7,2.2c0.9,3.4,3.7,5.6,7.7,6c1.6,0.1,3.2,0.3,4.8,0.4
	c3.3,0.2,6.7,0.5,10,1c7.4,1.2,12.9,5.7,18.1,10.1c0.7,0.6,1.3,1.1,2,1.7c4.1,3.4,8.2,6.8,12.3,10.1c11.1,9.2,22.6,18.7,34.2,27.7
	c4.3,3.3,9,5,13.7,5c3,0,6-0.7,8.9-2.1c7.7-3.8,11.8-10.2,12.1-19.2l0-0.5c0-0.5,0-0.9,0.1-1.4c0.1-1,0.7-1.4,1-1.7
	c0.1-0.1,0.2-0.2,0.4-0.3l1.3-1.1l1.3,1.2c5.3,4.8,9,11.3,11.5,20.5c2.7,10,1.3,19.9-4.2,29.4c-0.8,1.4-2,2.5-3.1,3.6
	c-0.6,0.6-1.2,1.1-1.7,1.7c-0.7,0.8-0.8,1.3-0.8,1.5c0.1,0.1,0.4,0.2,0.9,0.3c3,0.4,5.9,0.6,8.6,0.6c11.2,0,20.4-3.3,28.1-10
	c5.7-5,8.9-12,8.6-19.3c-0.3-8-4.4-15.4-11.6-21c-0.4-0.3-0.8-0.5-1.2-0.8l-0.7-0.5l-3.7-2.6l4.4-1c0.7-0.2,1.6-0.3,2.7-0.3
	c5,0,13,2,18.7,4.7c19.6,9.1,30.6,23.7,32.7,43.2c1.4,13.1-2.9,25.6-12.3,36.2c-11.2,12.6-26.1,19.3-45.3,20.6c-0.3,0-0.6,0-0.9,0
	c-1,0-2-0.1-3-0.2c-0.9-0.1-1.8-0.2-2.6-0.2c-0.2,0-0.3,0-0.5,0c-0.3,0-0.7,0.2-1.1,0.4c0.1,0.4,0.3,0.9,0.5,1.1
	c0.6,0.3,1.2,0.7,1.9,1c3.5,2,7.1,4,10.8,5c4.9,1.3,10.1,2,15.1,2.8c2.1,0.3,4.2,0.6,6.3,1l3.5,0.6l-2.4,2.7
	c-4.8,5.5-12,9.6-22,12.7C675.6,426.6,666.1,429.5,656.4,429.5z"/>
<path d="M474,223.2c6.2,8.1,15,10.1,24.4,10.8c8.3,0.6,15.8,3.3,16.2,13.2c0.1,2.4,1.1,4.7,1.7,7.1c1.1,4.2,4.7,7,9.4,7.4
	c4.9,0.5,9.8,0.6,14.6,1.4c7.8,1.2,13.3,6.6,19.1,11.3c15.4,12.7,30.7,25.7,46.5,37.8c7.1,5.5,15.9,7.4,24.6,3.1
	c8.6-4.2,12.9-11.4,13.3-21c0-0.6,0-1.2,0.1-1.8c0-0.1,0.2-0.2,0.7-0.6c5.8,5.3,8.9,12.2,10.9,19.6c2.7,9.7,1,19.1-4,27.8
	c-1.1,1.9-3.1,3.3-4.6,5c-1.9,2.3-2,4.6,1.3,5.1c14,1.9,27.3-0.3,38.2-9.8c12.9-11.2,12.9-31.2-3.1-43.4c-0.6-0.5-1.2-0.9-2-1.4
	c3.9-0.9,13.4,1.2,20.1,4.3c17.8,8.3,29.4,21.8,31.6,41.6c1.4,12.9-3,24.7-11.8,34.7c-11.7,13.2-26.8,18.8-44,20
	c-2.3,0.2-4.6-0.5-6.9-0.4c-1.2,0.1-2.3,0.9-3.5,1.5c0.6,1.3,0.9,3.2,1.9,3.8c4.3,2.4,8.6,5,13.2,6.2c7.1,1.9,14.6,2.6,21.6,3.8
	c-5.2,5.9-13,9.6-21.1,12.1c-9.3,2.8-18.6,5.6-28.7,5.1c-19-1-41.1-13.7-48.8-33.7c-2.1-5.6-3.2-11.7-4.9-17.5
	c-0.4-1.3-1.6-3.1-2.6-3.2c-1.1-0.1-2.7,1.2-3.5,2.3c-7.3,10.7-9.1,22.2-4.4,34.4c0.5,1.3,1,2.5,1.8,4.8
	c-12.3-7.2-21.1-16.2-22.5-30c-1-10.3-0.1-20.8-0.2-31.2c-0.2-11.6-4.9-20.7-14-28.1c-13.4-10.8-26.3-22.2-39.4-33.4
	c-1.8-1.5-3.5-3-5.3-4.4c-7.1-5.7-8-14.1-9.7-22.1c-0.7-3.4-0.7-7.2-2.2-10.2c-1.6-3.3-4.1-6.4-6.8-9c-3.8-3.7-8.7-6.5-12.2-10.5
	c-2.9-3.2-4.5-7.6-6.6-11.5C473.1,223.8,473.5,223.5,474,223.2z"/>
<path d="M433.8,421.8c-5.9,0-11.9-0.5-17.7-1.4c-16.7-2.7-31.7-8.9-44.5-18.5c-5.6-4.2-10.5-9.4-15.2-14.4c-2.2-2.3-4.5-4.7-6.8-7
	c-0.5-0.5-1-1.1-1.5-1.6c-1.3-1.5-2.1-2.4-3.1-2.4c-0.3,0-0.7,0.1-1.1,0.3c-2.3,0.9-2.5,2.8-2.3,6.7c0.1,1.5,0,3.1-1.3,5.5l-1.5,2.7
	l-1.8-2.5c-1-1.4-2.1-2.8-3.1-4.1c-2.3-3-4.7-6.1-6.7-9.4c-7.6-12.1-12-26.1-14.5-45.4c-2.2-17.5-0.2-35.4,6.7-58.2l0.2-0.7
	c0.4-1.4,0.9-2.8,0.9-4.1l0-0.2c0-1.3,0-3.8-0.6-4.5c-0.1,0-0.4-0.1-1.1-0.1c-0.8,0-1.9,0.1-2.9,0.4c-0.8,0.2-1.7,0.8-2.6,1.4
	c-0.5,0.3-1,0.7-1.5,1l-3.3,2l0.2-3.8c1.2-19.4,20.7-46.1,38.1-58.8l3.6-2.6l-1.8,18.7c-0.3,2.6-0.5,5.2-0.8,7.8
	c-0.8,8.2-1.7,16.7-2.4,25.1c0,0.4,0.1,0.9,0.4,1.5c0.7-0.3,1.3-0.7,1.7-1.1c2.3-2.3,4.7-4.7,6.9-7c4-4.1,8.1-8.3,12.5-12.1
	c4.9-4.2,10.1-8,15.5-12.1c2.5-1.8,5-3.7,7.6-5.7l4.1-3.1l-0.9,5.1c-0.5,2.5-0.9,4.8-1.3,7.1c-1.2,6.2-2.2,11.5-3,16.9
	c-0.1,0.5,0.1,1.3,0.3,2.1c1-0.2,1.9-0.3,2.4-0.7c2.6-1.6,5.2-3.4,7.8-5c4.2-2.8,8.5-5.6,12.9-8.1c2.5-1.4,5.4-1.9,8.1-2.3
	c1.2-0.2,2.3-0.4,3.4-0.6l1.7-0.4l1.6,4.1l-0.7,0.9c-0.9,1.2-1.9,2.4-2.8,3.6c-2,2.6-4.1,5.2-6.1,7.9c-9.6,12.8-15,24.5-17.2,36.7
	c-4,22.7-1.1,40,9,54.5c8.5,12.2,23.6,20.1,38.5,20.1c6,0,11.8-1.2,17.4-3.7c17.4-7.7,31.3-19.7,42.7-36.5c0.9-1.3,1.7-2.6,2.7-4
	l2.7-4l37.6,31.5l-0.7,1.4c-7.7,15-15.9,27.5-25.1,38.1c-15.1,17.4-32.9,29.7-53,36.5C459.3,419.6,446.4,421.8,433.8,421.8z"/>
<path d="M548.5,339.7c-7,13.6-15,26.3-24.9,37.7c-14.3,16.5-31.4,28.9-52.1,36c-17.9,6.1-36.2,8.1-55.2,5.1
	c-16.1-2.6-30.8-8.5-43.6-18.1c-8-6-14.6-14.1-21.8-21.2c-2.2-2.2-3.9-5.8-7.9-4.2c-3.9,1.6-3.7,5.2-3.5,8.7c0,1.2,0,2.4-1,4.4
	c-3.3-4.5-6.8-8.7-9.7-13.4c-8.5-13.6-12.2-28.8-14.2-44.6c-2.5-19.7,1-38.6,6.6-57.3c0.5-1.7,1.2-3.6,1.2-5.3
	c0-2.1,0.1-4.9-1.2-6.2c-1-1.1-4-0.7-5.9-0.3c-1.7,0.4-3.2,1.8-4.7,2.7c1.2-18.9,20.6-45.1,37.3-57.3c-0.5,5.1-1,9.7-1.4,14.3
	c-1.1,11-2.2,21.9-3.2,32.9c-0.1,1.4,0.8,3,1.3,4.4c1.4-0.8,3.1-1.3,4.2-2.4c6.5-6.3,12.6-13.1,19.4-19c7-6.1,14.7-11.3,23.1-17.7
	c-1.7,9.1-3.2,16.6-4.4,24c-0.2,1.5,0.5,3.1,0.8,4.7c1.7-0.4,3.6-0.5,5-1.3c6.9-4.3,13.5-9.1,20.6-13.1c3.2-1.8,7.3-1.9,11.1-2.8
	c0.2,0.5,0.4,1,0.6,1.5c-3,3.8-6,7.6-8.9,11.5c-8.4,11.3-15.1,23.6-17.5,37.6c-3.5,19.7-2.6,38.8,9.3,56
	c11.4,16.3,35.8,27.1,58.3,17.1c18.2-8.1,32.5-20.8,43.6-37.3c1.3-1.9,2.6-3.8,4.2-6.1C525.4,320.4,536.9,330,548.5,339.7z"/>
<path d="M549.6,250.7l1.4-1.6c1.1-1.3,2.3-2.7,3.6-4.1c2.9-3.3,5.9-6.7,8.9-10.3c16.9-19.9,36.2-34.8,57.5-44.5
	c6.6-3,13.7-5.1,20.5-7.1c3-0.9,6.1-1.8,9.1-2.8c0.3-0.1,0.6-0.1,1-0.1c0.1,0,0.2,0,0.2,0c0.2-0.2,0.5-0.3,0.7-0.5c0,0,0,0,0,0
	c-1,0.1-2,0.1-3,0.2c-4.8,0.3-9.8,0.6-14.4,1.6c-18.2,4.1-35,11.7-49.8,22.6c-3.2,2.4-6.1,5-9.6,8c-1.6,1.5-3.4,3-5.2,4.6l-3.1-2.4
	c9.7-19.4,22.1-34.9,38-47.4l3,2.4c0,0-1,2.1-1.3,2.7c-0.9,1.8-1.7,4.1-0.4,4.8c0.5,0.3,1.5,0.5,2.4,0.5c1.4,0,2.7-0.3,3.5-0.8
	c4.7-3.1,9.4-6.6,13.9-10c2.8-2.1,5.6-4.2,8.5-6.2c3-2.1,6.1-4.1,9.1-6c1.3-0.8,2.6-1.7,3.9-2.5l5.9-3.9l-3,6.4
	c-0.5,1.1-1,2.1-1.5,3c-1.1,2-2.1,3.9-2.6,5.9c-0.1,0.6-0.2,1.4,0.2,1.9c0.3,0.4,0.9,0.6,1.7,0.6c0.2,0,0.4,0,0.7,0
	c4.2-0.6,9.2-1.4,13.9-3c7.9-2.6,15.7-3.9,23.3-3.9c18.8,0,37.2,7.7,58,24.2l3.9,3.1l-11.1,0.9c-4.1,0.3-7.9,0.7-11.7,1
	c-13.3,1.1-26.1,4.7-39.1,11.1c-1.3,0.6-2.9,1-4.3,1c-1.1,0-2-0.2-2.7-0.6c-6.7-3.5-14.1-5.2-21.9-5.2c-17.6,0-35.1,9-45.7,23.6
	c-11.1,15.3-21.5,32.1-32.5,52.9l-1.1,2.1L549.6,250.7z"/>
<path d="M577.7,269.8c-8.5-6.5-16.7-12.8-25.2-19.4c3.7-4.3,8.2-9.3,12.5-14.4c15.9-18.6,34.5-33.8,56.8-44
	c9.3-4.3,19.6-6.6,29.4-9.8c0.4-0.1,1,0.1,1.4-0.1c1.2-0.8,2.4-1.8,3.6-2.7c-1.3-0.6-2.6-1.8-3.8-1.7c-5.9,0.4-12,0.6-17.7,1.9
	c-18.4,4.1-35.4,11.7-50.6,22.9c-4.9,3.6-9.3,7.8-14.9,12.7c9.5-19,21.6-34.3,37.5-46.8c-0.4,0.9-0.8,1.8-1.3,2.7
	c-1.3,2.6-2.3,6,0.4,7.4c2.1,1.1,6,0.9,8-0.4c7.7-5.1,14.9-10.9,22.4-16.2c4.3-3,8.8-5.8,12.9-8.5c-1.6,3.3-3.4,6.1-4.2,9.3
	c-0.9,3.5,1.5,5.4,4.8,4.9c4.8-0.7,9.7-1.5,14.3-3.1c30.3-10,55.3,0.8,79.5,20c-6.7,0.6-12.2,1-17.7,1.5c-14,1.1-27.2,5.1-39.8,11.3
	c-1.5,0.7-3.9,1.1-5.3,0.4c-24.1-12.4-54.5-2.6-70.1,18.9C598.1,233.5,587.5,251.4,577.7,269.8z"/>
<path d="M500.9,136.3c-7.7-7.9-15.2-15.5-22.7-23.2c-3.1-3.2-3.7-6.3-1.8-10.9c7.9-19.8,6.4-36.1-4.5-50
	c-5.1-6.6-13.1-10.3-21.9-10.3c-5.9,0-12,1.8-17,5c-8.9,5.7-14.2,14.2-15.8,25.4c-0.8,5.2-2,10.4-3.1,15.4
	c-0.9,3.9-1.8,7.9-2.5,11.9c-0.6,3.6-0.9,7.3-1.1,11.2c-0.1,1.9-0.2,3.8-0.4,5.9l-0.3,3.2l-2.7-1.6c-8-4.7-13.1-9.9-16.1-16.4
	c-1.9-4.2-3.7-8.5-5.4-12.7c-1.6-3.9-3.3-7.9-5-11.8c-0.3-0.7-1.1-1.4-1.9-2.2c-0.6,0.7-1.1,1.5-1.3,2.1c-3,9.4-5.8,18.6-9,29.7
	c-0.4,1.2-0.6,2.6-0.8,4.1c-0.1,0.8-0.2,1.5-0.4,2.3l-1,5.3l-2.7-4.6c-3.7-6.3-5.6-13.5-6.2-23.2c-1.6-27.5,7.4-50.1,26.9-67.1
	c14.6-12.7,31.5-19.9,51.8-22C439.9,1.2,444,1,448,1c16.8,0,32.6,3.9,47,11.5c22.2,11.8,35.2,30.6,38.9,55.9c3.4,23.8-2.9,47-20,73
	c-0.3,0.5-0.7,0.9-1.3,1.5c-0.3,0.3-0.6,0.7-1.1,1.2l-1.4,1.6L500.9,136.3z"/>
<path d="M510,142.8c-10.4-10.6-20.4-20.9-30.4-31.1c-2.6-2.6-3-4.8-1.4-8.8c7.1-18,7.9-35.8-4.8-52c-10.1-12.9-28.5-14.1-41.5-5.8
	c-9.6,6.1-15,15.2-16.7,26.8c-1.3,9.2-4,18.1-5.6,27.2c-1,5.4-1,10.9-1.6,17.2c-6.8-4-12.1-8.7-15.2-15.5
	c-3.7-8.1-6.8-16.4-10.4-24.5c-0.8-1.7-2.6-2.9-4-4.3c-1,1.5-2.5,2.8-3,4.5c-3.1,9.9-6.1,19.8-9,29.7c-0.6,2-0.8,4.2-1.3,6.6
	c-4.1-7-5.5-14.6-6-22.3c-1.5-25.9,6.3-48.1,26.2-65.4c14.5-12.7,31.4-19.5,50.7-21.5c20.6-2.1,40,1,58.2,10.6
	c21.8,11.6,34.3,29.9,37.8,54.4c3.9,26.8-5.4,49.9-19.7,71.7C511.8,141,511.2,141.5,510,142.8z"/>
<path d="M622.3,303.7c-1.7,0-3.6-0.3-5.2-0.5l-0.7-0.1c-2.2-0.3-4.1-3.7-4.1-5.7c-0.2-20-0.1-40-0.1-58.7c0-0.8,0.1-2.9,1.3-4.6
	c8.2-11.7,18.5-26.2,37.8-28.6c2.3-0.3,4.5-0.4,6.5-0.4c8.4,0,15.5,2.4,21.7,7.4c1.5,1.2,3.5,2.8,4.2,2.8c0.6,0,2-1.2,3.7-2.7
	l0.6-0.5c2.3-1.9,4.7-3.5,7.6-5.2c1.3-0.8,2.7-1.7,4.2-2.7l3.1-2.1v81.9l-2.2-0.2c-2.6-0.2-5.1-0.5-7.7-0.7
	c-6.5-0.6-13.3-1.3-19.9-1.7c-0.2,0-0.5,0-0.7,0c-1.2,0-2.4,0.2-3.6,0.4c-1.2,0.2-2.4,0.3-3.7,0.4l-0.7,0c-1.3,0-2.6,0.1-3.9,0.1
	c-4.3,0-9.3-0.5-14.1-4.2c-5.2-4-11.1-7.2-16.9-10.4c-1.9-1.1-3.8-2.1-5.7-3.2c-0.5-0.3-1.2-0.4-2-0.5c-0.1,0.9-0.3,1.8-0.1,2.3
	c2.4,7.5,5,15.3,8.4,24.6c1.9,5.3,0.7,9.8-3.1,11.9C625.8,303.4,624.2,303.7,622.3,303.7z"/>
<path d="M700.9,205.9c0,26.6,0,51.7,0,76c-9.3-0.9-18.4-1.8-27.6-2.5c-2.7-0.2-5.5,0.6-8.2,0.7c-6.1,0.2-11.8,0.6-17.4-3.6
	c-7-5.3-15.1-9.3-22.8-13.8c-1.3-0.8-3.1-0.7-4.7-1.1c-0.1,1.7-0.8,3.6-0.3,5.2c2.6,8.3,5.5,16.5,8.4,24.7c1.4,3.8,1.1,7.7-2.2,9.4
	c-2.5,1.3-6.3,0.6-9.4,0.2c-1-0.1-2.4-2.4-2.4-3.7c-0.2-19.6-0.1-39.1-0.1-58.7c0-1.2,0.3-2.5,0.9-3.4c9.2-13.1,18.7-25.6,36.4-27.8
	c9.9-1.2,18.8,0.1,26.8,6.5c5.7,4.6,5.7,4.2,11.1-0.5C692.5,210.9,696.3,208.9,700.9,205.9z"/>
<path d="M669.1,303.7l2.7,1c7.1,2.7,11.1,8.4,10.9,15.6c-0.1,6.2-4.3,11.1-11,13.2l-2.6,0.8V303.7z"/>
<path d="M671.1,306.6c6.3,2.4,9.7,7.3,9.6,13.7c-0.1,5.3-3.8,9.5-9.6,11.3c0-4.2,0-8.4,0-12.7C671.1,314.7,671.1,310.6,671.1,306.6z
	"/>
<path d="M493.9,196.1c-4.3-0.8-9.4-2.3-12.4-7c-2.4-3.7-4.2-7.8-5.8-11.9c-0.5-1.2,0.3-3.4,1.2-4.3c0.7-0.7,2.9-0.3,4.1,0.2
	c7.8,3.7,12.9,10.1,16.8,17.6C499.7,194.3,498.6,196.1,493.9,196.1z M478.6,175.2c1.6,10.9,9.2,18.6,17,17.6
	C491.8,185.1,486.7,178.7,478.6,175.2z"/>
<path class="st0" d="M478.6,175.2c8.1,3.4,13.2,9.9,17,17.6C487.8,193.9,480.2,186.2,478.6,175.2z"/>
</svg>
